<?xml version="1.0" standalone="no"?><!DOCTYPE svg PUBLIC "-//W3C//DTD SVG 1.1//EN" "http://www.w3.org/Graphics/SVG/1.1/DTD/svg11.dtd"><svg t="1547695444878" class="icon" style="" viewBox="0 0 1024 1024" version="1.1" xmlns="http://www.w3.org/2000/svg" p-id="7078" xmlns:xlink="http://www.w3.org/1999/xlink" width="200" height="200"><defs><style type="text/css"></style></defs><path d="M694.710857 429.129143a201.581714 201.581714 0 1 0 0.146286 403.163428 201.581714 201.581714 0 0 0-0.146286-403.163428z m0 352.694857a114.761143 114.761143 0 1 1 0.073143-229.302857 114.761143 114.761143 0 0 1-0.073143 229.302857z m0-174.738286a62.464 62.464 0 0 0 0 124.928c34.742857 0 62.683429-28.086857 62.683429-62.464S729.453714 607.085714 694.710857 607.085714z" fill="#01EBFC" p-id="7079"></path><path d="M840.484571 796.086857c-37.814857 33.060571-89.088 53.540571-145.773714 53.540572s-108.251429-20.48-145.846857-53.540572l-34.304 75.337143-0.438857 1.170286a25.380571 25.380571 0 0 0 4.681143 25.161143c9.728 11.995429 30.354286 19.821714 52.809143 19.821714h246.125714c19.017143 0 43.154286-6.582857 53.906286-21.065143a23.771429 23.771429 0 0 0 3.072-24.941714l-34.230858-75.483429zM329.142857 768H226.889143c-98.230857 0-150.893714-46.372571-165.888-145.846857L55.003429 246.125714c0-62.537143 29.842286-136.411429 171.885714-136.411428h550.765714c139.776 0 155.940571 73.654857 155.940572 129.024l2.048 84.992a36.571429 36.571429 0 0 1-35.693715 37.449143 37.376 37.376 0 0 1-37.449143-35.693715l-2.048-85.869714c0-32.109714 0-56.758857-82.797714-56.758857h-550.765714c-98.742857 0-98.742857 37.741714-98.742857 62.683428l5.632 370.614858c10.166857 65.755429 39.424 78.701714 93.110857 78.701714H329.142857a36.571429 36.571429 0 0 1 0 73.142857z" fill="#01EBFC" p-id="7080"></path></svg>