<?xml version="1.0" standalone="no"?><!DOCTYPE svg PUBLIC "-//W3C//DTD SVG 1.1//EN" "http://www.w3.org/Graphics/SVG/1.1/DTD/svg11.dtd"><svg t="1547781958506" class="icon" style="" viewBox="0 0 1024 1024" version="1.1" xmlns="http://www.w3.org/2000/svg" p-id="4082" xmlns:xlink="http://www.w3.org/1999/xlink" width="200" height="200"><defs><style type="text/css"></style></defs><path d="M512.6 960.4c-60.4 0-119.1-11.8-174.3-35.2-53.3-22.6-101.2-54.8-142.3-96-41.1-41.1-73.4-89-96-142.3C76.6 631.6 64.8 573 64.8 512.5s11.8-119 35.2-174.3c22.6-53.3 54.8-101.2 96-142.3 41.1-41.1 89-73.4 142.3-96 55.2-23.4 113.9-35.2 174.3-35.2s119.1 11.8 174.3 35.2c53.3 22.6 101.2 54.8 142.3 96 41.1 41.1 73.4 89 96 142.3 23.4 55.2 35.2 113.9 35.2 174.3s-11.8 119.1-35.2 174.3c-22.6 53.3-54.8 101.2-96 142.3-41.1 41.1-89 73.4-142.3 96-55.2 23.4-113.8 35.3-174.3 35.3z m0-836c-214 0-388.2 174.1-388.2 388.2 0 214 174.1 388.2 388.2 388.2s388.2-174.1 388.2-388.2-174.1-388.2-388.2-388.2z" p-id="4083" fill="#ffffff"></path><path d="M307.7 747.6c-7.6 0-15.2-2.9-21.1-8.7-29.4-29.4-52.5-63.6-68.7-101.7-16.7-39.5-25.2-81.4-25.2-124.6 0-85.4 33.3-165.7 93.7-226.1 60.4-60.4 140.7-93.7 226.1-93.7s165.7 33.3 226.1 93.7c60.4 60.4 93.7 140.7 93.7 226.1S799 678.3 738.6 738.7c-11.6 11.6-30.5 11.6-42.2 0-11.6-11.6-11.6-30.5 0-42.2 49.1-49.1 76.2-114.5 76.2-184 0-143.5-116.7-260.2-260.2-260.2s-260 116.8-260 260.2c0 69.6 27.1 135 76.3 184.1 11.7 11.6 11.7 30.5 0 42.2-5.7 5.9-13.3 8.8-21 8.8z" p-id="4084" fill="#ffffff"></path><path d="M512.8 512.8m-64 0a64 64 0 1 0 128 0 64 64 0 1 0-128 0Z" p-id="4085" fill="#ffffff"></path><path d="M648.8 376.8l-90.5 181.1-90.5-90.6z" p-id="4086" fill="#ffffff"></path></svg>