<?xml version="1.0" standalone="no"?><!DOCTYPE svg PUBLIC "-//W3C//DTD SVG 1.1//EN" "http://www.w3.org/Graphics/SVG/1.1/DTD/svg11.dtd"><svg t="1547695353616" class="icon" style="" viewBox="0 0 1024 1024" version="1.1" xmlns="http://www.w3.org/2000/svg" p-id="5747" xmlns:xlink="http://www.w3.org/1999/xlink" width="200" height="200"><defs><style type="text/css"></style></defs><path d="M750 97H278c-99 0-180 81-180 180v502c0 99 81 180 180 180h472c99 0 180-81 180-180V277c0-99-81-180-180-180zM158 414h712v196.2H158V414z m120-257h472c66.2 0.3 119.7 53.8 120 120v77H158v-77c0.3-66.2 53.8-119.7 120-120z m472 742H278c-66.2-0.3-119.7-53.8-120-120V670.2h712V779c-0.3 66.2-53.8 119.7-120 120z" p-id="5748" fill="#01EBFC"></path><path d="M722.5 255.5m-46.5 0a46.5 46.5 0 1 0 93 0 46.5 46.5 0 1 0-93 0Z" p-id="5749" fill="#01EBFC"></path><path d="M722.5 512m-46.5 0a46.5 46.5 0 1 0 93 0 46.5 46.5 0 1 0-93 0Z" p-id="5750" fill="#01EBFC"></path><path d="M722.5 768.5m-46.5 0a46.5 46.5 0 1 0 93 0 46.5 46.5 0 1 0-93 0Z" p-id="5751" fill="#01EBFC"></path></svg>