<?xml version="1.0" standalone="no"?><!DOCTYPE svg PUBLIC "-//W3C//DTD SVG 1.1//EN" "http://www.w3.org/Graphics/SVG/1.1/DTD/svg11.dtd"><svg t="1547694878544" class="icon" style="" viewBox="0 0 1024 1024" version="1.1" xmlns="http://www.w3.org/2000/svg" p-id="2529" xmlns:xlink="http://www.w3.org/1999/xlink" width="200" height="200"><defs><style type="text/css"></style></defs><path d="M510.6176 1011.0976l0.3584 0.0512 0.2048-0.0512 0.8192 0.0512a496.384 496.384 0 0 0 448.3072-279.296 38.4 38.4 0 0 0-68.9664-33.8944 418.9184 418.9184 0 0 1-341.9648 233.7792V768a38.4 38.4 0 0 0-76.8 0v164.4032a422.912 422.912 0 0 1-381.0304-382.0032H256a38.4 38.4 0 0 0 0-76.8H91.5456A422.912 422.912 0 0 1 472.576 91.5968V256a38.4 38.4 0 0 0 76.8 0V91.4944a422.8096 422.8096 0 0 1 383.0784 382.1056H768a38.4 38.4 0 0 0 0 76.8h204.8a38.4 38.4 0 0 0 38.4-38.4c0-275.2512-223.9488-499.2-499.2-499.2l-0.8192 0.0512L510.976 12.8l-0.3584 0.0512C236.032 13.6192 12.8 237.2096 12.8 512s223.232 498.3808 497.8176 499.0976z" fill="#01EBFC" p-id="2530"></path><path d="M512 512m-51.2 0a51.2 51.2 0 1 0 102.4 0 51.2 51.2 0 1 0-102.4 0Z" fill="#01EBFC" p-id="2531"></path></svg>