<?xml version="1.0" standalone="no"?><!DOCTYPE svg PUBLIC "-//W3C//DTD SVG 1.1//EN" "http://www.w3.org/Graphics/SVG/1.1/DTD/svg11.dtd"><svg t="1547782395592" class="icon" style="" viewBox="0 0 1024 1024" version="1.1" xmlns="http://www.w3.org/2000/svg" p-id="4459" xmlns:xlink="http://www.w3.org/1999/xlink" width="200" height="200"><defs><style type="text/css"></style></defs><path d="M216.9856 315.2896m-32.768 0a32.768 32.768 0 1 0 65.536 0 32.768 32.768 0 1 0-65.536 0Z" p-id="4460" fill="#ffffff"></path><path d="M806.912 282.5216H348.16c-18.1248 0-32.8704 14.7456-32.8704 32.8704 0 18.1248 14.7456 32.8704 32.8704 32.8704h458.752c18.1248 0 32.8704-14.7456 32.8704-32.8704 0-18.1248-14.7456-32.8704-32.8704-32.8704z" p-id="4461" fill="#ffffff"></path><path d="M216.9856 512.1024m-32.768 0a32.768 32.768 0 1 0 65.536 0 32.768 32.768 0 1 0-65.536 0Z" p-id="4462" fill="#ffffff"></path><path d="M806.912 479.3344H348.16c-18.1248 0-32.8704 14.7456-32.8704 32.8704 0 18.1248 14.7456 32.8704 32.8704 32.8704h458.752c18.1248 0 32.8704-14.7456 32.8704-32.8704 0-18.1248-14.7456-32.8704-32.8704-32.8704z" p-id="4463" fill="#ffffff"></path><path d="M216.9856 708.5056m-32.768 0a32.768 32.768 0 1 0 65.536 0 32.768 32.768 0 1 0-65.536 0Z" p-id="4464" fill="#ffffff"></path><path d="M806.912 675.7376H348.16c-18.1248 0-32.8704 14.7456-32.8704 32.8704 0 18.1248 14.7456 32.8704 32.8704 32.8704h458.752c18.1248 0 32.8704-14.7456 32.8704-32.8704 0-18.1248-14.7456-32.8704-32.8704-32.8704z" p-id="4465" fill="#ffffff"></path></svg>